<svg width="50" height="43" fill="none" xmlns="http://www.w3.org/2000/svg"><path d="M5.58.752c-1.662-.415-3.574.25-5.236.416-.416 0-.5.665 0 .748 1.662.083 3.657 0 5.236-.416.333-.166.333-.665 0-.748ZM15.554 2.996c-1.163-1.163-2.992-1.413-4.488-1.33-.333 0-.333.5 0 .5.831.082 1.58.249 2.327.498.665.25 1.247.582 1.912.831.25.166.499-.25.25-.499ZM24.282 9.48c-.332-.748-.997-1.413-1.662-1.912-.582-.582-1.33-1.08-1.995-1.496-.25-.167-.499.166-.25.332.666.499 1.248 1.08 1.746 1.663.582.581.998 1.33 1.58 1.911.249.333.747-.083.581-.498ZM25.945 14.633c-.25-.415-.832-.083-.582.333.166.416.415.914.582 1.33.166.582.082 1.163.332 1.662.083.25.499.25.582 0 .415-.914-.416-2.41-.915-3.325ZM28.19 25.023c0-.831 0-1.662-.167-2.41-.083-.416-.582-.416-.582 0-.083.748-.083 1.413-.083 2.16 0 .749-.166 1.497.083 2.245.083.332.665.332.748 0 .167-.665.084-1.33 0-1.995ZM26.194 32.338c-.333.831-.665 1.662-1.164 2.493-.416.749-.997 1.497-1.08 2.328-.084.416.498.499.748.332.665-.581.997-1.58 1.33-2.41a9.768 9.768 0 0 0 .83-2.494c.084-.498-.581-.665-.664-.25ZM22.454 38.739c-.499.581-.997 1.246-1.496 1.745-.25.25-.582.499-.914.665-.333.166-.5.166-.749.499-.166.25 0 .582.25.665.748.166 1.413-.582 1.912-1.08.581-.666.997-1.414 1.413-2.245.083-.25-.25-.499-.416-.25ZM16.053 40.816c-.416.333-.914.582-1.413.582-.416 0-.914-.083-1.247.25a.402.402 0 0 0 0 .581c.831.831 2.494-.332 2.993-.997.166-.25-.083-.582-.333-.416ZM10.734 39.07a9.442 9.442 0 0 1-2.078-.498c-.748-.333-1.08-.914-1.496-1.58-.25-.332-.748-.249-.831.25-.083 2.244 2.743 2.66 4.405 2.41.25-.083.25-.581 0-.581ZM6.578 33.585c-.665-1.247-.499-2.494-.748-3.824-.084-.332-.582-.332-.665 0-.25 1.413.166 2.91.997 4.073.166.25.499.083.416-.25ZM6.91 19.288C5.414 20.7 5.08 22.779 5.164 24.69c0 .332.582.332.582 0 .083-1.746.582-3.491 1.662-4.904.333-.333-.166-.832-.498-.5ZM11.732 13.303c-1.496.748-2.66 2.161-3.574 3.574-.25.333.332.665.499.333.997-1.247 2.244-2.244 3.408-3.325.332-.332 0-.748-.333-.582ZM16.636 8.482c-1.164 0-2.494.998-3.242 1.83-.333.332.166.83.499.498a5.46 5.46 0 0 1 1.413-.998c.498-.249 1.08-.415 1.579-.748.25-.166 0-.582-.25-.582ZM27.774 4.991c-.665 0-1.33.25-1.995.333-.831.166-1.662.25-2.41.582-.416.166-.25.748.166.665.748-.167 1.58-.25 2.327-.333.665-.083 1.497-.083 2.078-.499.416-.166.25-.748-.166-.748ZM35.171 4.16c-1.08-.25-2.41 0-3.574.083a.292.292 0 0 0 0 .582c1.164.083 2.41.332 3.574.083.416-.083.416-.665 0-.748ZM42.902 4.576c-.582-.167-1.164-.084-1.746-.084-.582 0-1.247 0-1.829.084-.415 0-.415.665 0 .665.582 0 1.247 0 1.829.083.582 0 1.164.083 1.746-.083.332 0 .332-.5 0-.665Z" fill="#FF9C00"/><path d="M49.8 4.825c-1.08-1.08-2.16-2.078-3.324-2.992-.831-.665-2.078-1.912-3.159-1.829-.416 0-.748.499-.499.914.499.832 1.663 1.33 2.41 1.829.915.665 1.83 1.496 2.744 2.327-1.663.665-3.325 1.58-4.904 2.41-.499.25-.167 1.165.415.998 2.078-.665 3.907-1.995 6.068-2.41.499-.083.582-.831.25-1.247Z" fill="#FF9C00"/></svg>