<svg xmlns="http://www.w3.org/2000/svg" width="50" height="50" fill="none"><style>@keyframes floating-left{0%,to{-webkit-transform:translate(0,0);transform:translate(0,0)}65%{-webkit-transform:translate(-5px,0);transform:translate(-5px,0)}}@keyframes floating-right{0%,to{-webkit-transform:translate(0,0);transform:translate(0,0)}65%{-webkit-transform:translate(5px,0);transform:translate(5px,0)}}</style><g style="animation-duration:2s;animation-name:floating-right;animation-iteration-count:infinite;animation-timing-function:ease-in-out"><path id="Vector_21" fill="#0E0A01" d="M17.31 22.151a.35.35 0 0 1 .24-.616h23.776a.35.35 0 0 1 .359.36.35.35 0 0 1-.36.359H17.55c-.085.017-.17-.034-.24-.103Z"/><path id="Vector_41" fill="#0E0A01" d="M4.789 22.152a.35.35 0 0 1 .24-.616h1.71a.35.35 0 0 1 .359.36.35.35 0 0 1-.36.358h-1.71c-.085.017-.17-.034-.24-.102Zm3.455 0a.35.35 0 0 1 .24-.616h1.71a.35.35 0 0 1 .36.36.35.35 0 0 1-.36.358h-1.71c-.086.017-.171-.034-.24-.102Zm3.455 0a.35.35 0 0 1 .24-.616h1.71a.35.35 0 0 1 .36.359.35.35 0 0 1-.36.36h-1.71c-.086.016-.171-.035-.24-.103Z"/><path id="Vector_51" fill="#0E0A01" d="M15.155 22.151a.35.35 0 0 1 .24-.616h.855a.35.35 0 0 1 .36.36.35.35 0 0 1-.36.36h-.855a.31.31 0 0 1-.24-.104Z"/><path id="Vector_61" fill="#fff" d="M42.336 20.903a1.404 1.404 0 0 1-1.984 1.984 1.404 1.404 0 0 1 0-1.984c.564-.53 1.454-.53 1.984 0Z"/><path id="Vector_71" fill="#FF9C00" d="M40.368 22.87a1.404 1.404 0 0 1 1.984-1.984"/><path id="Vector_81" fill="#0E0A01" d="M40.112 23.126a1.78 1.78 0 0 1-.513-1.231c0-.48.188-.907.513-1.232a1.78 1.78 0 0 1 1.232-.513c.479 0 .906.188 1.231.513.325.325.514.787.514 1.232 0 .479-.189.906-.514 1.231a1.78 1.78 0 0 1-1.231.514c-.462.017-.89-.172-1.232-.514Zm1.967-1.967a1.024 1.024 0 0 0-.718-.308c-.274 0-.53.12-.719.308a1.024 1.024 0 0 0-.308.719c0 .273.12.53.308.718.188.188.445.308.719.308.274 0 .53-.12.718-.308.188-.188.308-.445.308-.718a1.09 1.09 0 0 0-.308-.719Z"/><path id="Vector_91" fill="#fff" d="M3.455 20.92a1.404 1.404 0 0 1-1.984 1.984 1.404 1.404 0 0 1 0-1.984 1.389 1.389 0 0 1 1.984 0Z"/><path id="Vector_101" fill="#FF9C00" d="M1.488 22.887a1.404 1.404 0 0 1 1.985-1.984"/><path id="Vector_111" fill="#0E0A01" d="M1.231 23.144a1.78 1.78 0 0 1-.513-1.232c0-.479.188-.906.513-1.231a1.78 1.78 0 0 1 1.232-.513c.479 0 .906.188 1.231.513.325.325.514.787.514 1.231 0 .48-.189.907-.514 1.232a1.78 1.78 0 0 1-1.231.513 1.825 1.825 0 0 1-1.232-.513Zm1.967-1.967a1.024 1.024 0 0 0-.718-.308c-.274 0-.53.12-.718.308a1.024 1.024 0 0 0-.308.718c0 .274.12.53.308.719.188.188.444.308.718.308.274 0 .53-.12.718-.308.189-.189.308-.445.308-.719 0-.273-.12-.53-.308-.718Z"/></g><g style="animation-duration:2s;animation-name:floating-left;animation-iteration-count:infinite;animation-timing-function:ease-in-out"><path id="Vector_122" fill="#0E0A01" d="M23.504 28.344a.35.35 0 0 1 .24-.616H47.52a.35.35 0 0 1 .36.36.35.35 0 0 1-.36.359H23.743c-.085.017-.17-.034-.239-.103Z"/><path id="Vector_13" fill="#0E0A01" d="M8.417 28.344a.35.35 0 0 1 .24-.616h.855a.35.35 0 0 1 .359.36.35.35 0 0 1-.36.359h-.855a.31.31 0 0 1-.24-.103Z"/><path id="Vector_142" fill="#0E0A01" d="M10.983 28.345a.35.35 0 0 1 .24-.616h1.71a.35.35 0 0 1 .36.359.35.35 0 0 1-.36.36h-1.71c-.086.016-.171-.035-.24-.104Zm3.455 0a.35.35 0 0 1 .24-.616h1.71a.35.35 0 0 1 .36.359.35.35 0 0 1-.36.36h-1.71c-.086.016-.171-.035-.24-.104Zm3.456 0a.35.35 0 0 1 .24-.616h1.71a.35.35 0 0 1 .359.359.35.35 0 0 1-.36.36h-1.71c-.085.016-.17-.035-.24-.104Z"/><path id="Vector_152" fill="#0E0A01" d="M21.349 28.344a.35.35 0 0 1 .24-.616h.854a.35.35 0 0 1 .36.36.35.35 0 0 1-.36.359h-.855a.31.31 0 0 1-.24-.103Z"/><path id="Vector_162" fill="#fff" d="M48.53 27.096a1.404 1.404 0 0 1-1.985 1.984 1.404 1.404 0 0 1 0-1.984c.564-.53 1.454-.53 1.984 0Z"/><path id="Vector_172" fill="#FF9C00" d="M46.562 29.063a1.404 1.404 0 0 1 1.984-1.984"/><path id="Vector_182" fill="#0E0A01" d="M46.306 29.32a1.78 1.78 0 0 1-.514-1.232c0-.48.188-.907.514-1.232a1.78 1.78 0 0 1 1.231-.513c.479 0 .907.188 1.232.513.325.325.513.787.513 1.232 0 .479-.188.906-.513 1.231a1.78 1.78 0 0 1-1.232.513c-.462.018-.89-.17-1.231-.513Zm1.967-1.968a1.024 1.024 0 0 0-.719-.308c-.273 0-.53.12-.718.308a1.024 1.024 0 0 0-.308.719c0 .273.12.53.308.718.188.188.445.308.718.308.274 0 .53-.12.719-.308.188-.188.307-.445.307-.718a1.09 1.09 0 0 0-.307-.719Z"/><path id="Vector_192" fill="#fff" d="M9.648 27.113a1.404 1.404 0 0 1-1.984 1.984 1.404 1.404 0 0 1 0-1.984 1.389 1.389 0 0 1 1.984 0Z"/><path id="Vector_202" fill="#FF9C00" d="M7.682 29.08a1.404 1.404 0 0 1 1.984-1.984"/><path fill="#0E0A01" d="M7.425 29.337a1.78 1.78 0 0 1-.513-1.232c0-.479.188-.906.513-1.231a1.78 1.78 0 0 1 1.231-.514c.48 0 .907.189 1.232.514.325.325.513.787.513 1.231 0 .48-.188.907-.513 1.232a1.78 1.78 0 0 1-1.232.513 1.825 1.825 0 0 1-1.231-.513Zm1.967-1.967a1.025 1.025 0 0 0-.719-.308c-.273 0-.53.12-.718.308a1.024 1.024 0 0 0-.308.718c0 .274.12.53.308.718.188.189.445.308.718.308.274 0 .53-.12.719-.308.188-.188.308-.444.308-.718 0-.274-.12-.53-.308-.718Z"/></g></svg>