<svg xmlns="http://www.w3.org/2000/svg" width="80" height="75" fill="none"><path fill="#FF9C00" d="M27.695 35.443a.561.561 0 0 1 .383-.985h38.043c.328 0 .575.245.575.574a.561.561 0 0 1-.575.575H28.078c-.136.027-.273-.055-.383-.164ZM3.558 35.443a.561.561 0 0 1 .383-.985h1.368c.329 0 .575.246.575.574a.561.561 0 0 1-.575.575H3.941a.497.497 0 0 1-.383-.164ZM7.662 35.443a.561.561 0 0 1 .383-.985h2.737c.329 0 .575.246.575.575a.561.561 0 0 1-.575.574H8.045c-.136.028-.273-.054-.383-.164Zm5.529 0a.561.561 0 0 1 .383-.985h2.737c.328 0 .575.246.574.575a.561.561 0 0 1-.574.574h-2.737c-.137.028-.274-.054-.383-.164Zm5.528 0a.561.561 0 0 1 .383-.985h2.737c.329 0 .575.246.575.575a.561.561 0 0 1-.575.574h-2.737c-.136.028-.273-.054-.383-.164ZM24.248 35.443a.582.582 0 0 1-.192-.41c0-.33.247-.575.575-.575H26c.328 0 .574.246.574.574a.561.561 0 0 1-.574.575H24.63a.497.497 0 0 1-.383-.164Z"/><path fill="#FF9C00" d="M67.738 33.445a2.247 2.247 0 0 1 0 3.175 2.247 2.247 0 0 1-3.175 0 2.246 2.246 0 0 1 0-3.175c.903-.849 2.326-.849 3.175 0Z"/><path fill="#fff" d="M64.59 36.592a2.246 2.246 0 0 1 0-3.175 2.246 2.246 0 0 1 3.174 0"/><path fill="#FF9C00" d="M64.18 37.002a2.847 2.847 0 0 1-.821-1.97c0-.767.3-1.45.82-1.97a2.847 2.847 0 0 1 1.971-.822c.767 0 1.45.301 1.97.821s.822 1.26.822 1.97a2.75 2.75 0 0 1-.821 1.971c-.52.52-1.26.821-1.97.821-.74.028-1.424-.273-1.971-.82Zm3.147-3.147a1.64 1.64 0 0 0-1.15-.493c-.437 0-.848.192-1.149.493a1.639 1.639 0 0 0-.493 1.15c0 .437.192.848.493 1.149.301.301.712.493 1.15.493.438 0 .848-.192 1.15-.493a1.64 1.64 0 0 0 .492-1.15c-.027-.41-.164-.82-.493-1.15ZM5.529 33.472a2.246 2.246 0 0 1 0 3.175 2.246 2.246 0 0 1-3.175 0 2.246 2.246 0 0 1 0-3.175 2.222 2.222 0 0 1 3.175 0Z"/><path fill="#fff" d="M2.382 36.62a2.246 2.246 0 0 1 0-3.175 2.246 2.246 0 0 1 3.175 0"/><path fill="#FF9C00" d="M1.97 37.03a2.847 2.847 0 0 1-.82-1.97c0-.767.3-1.45.82-1.97a2.847 2.847 0 0 1 1.971-.822c.767 0 1.45.301 1.97.821s.822 1.26.822 1.97a2.75 2.75 0 0 1-.821 1.971c-.52.52-1.26.821-1.97.821-.74-.027-1.451-.3-1.971-.82Zm3.148-3.147a1.639 1.639 0 0 0-1.15-.493c-.437 0-.848.192-1.149.493a1.639 1.639 0 0 0-.492 1.15c0 .437.191.848.492 1.149.301.3.712.492 1.15.492.438 0 .848-.191 1.15-.492.3-.301.492-.712.492-1.15 0-.438-.192-.848-.493-1.15ZM37.605 40.351a.561.561 0 0 1 .383-.985h38.043c.328 0 .575.246.575.574a.561.561 0 0 1-.575.575H37.989c-.137.028-.274-.055-.384-.164ZM13.467 40.35a.561.561 0 0 1 .383-.985h1.368c.329 0 .575.247.575.575a.561.561 0 0 1-.575.575H13.85a.497.497 0 0 1-.383-.164ZM17.573 40.351a.561.561 0 0 1 .383-.985h2.736c.329 0 .575.246.575.575a.561.561 0 0 1-.575.574h-2.736c-.137.028-.274-.054-.383-.164Zm5.528 0a.582.582 0 0 1-.192-.41c0-.329.247-.575.575-.575h2.737c.328 0 .575.246.575.575a.561.561 0 0 1-.575.574h-2.737c-.137.028-.274-.054-.383-.164Zm5.528 0a.561.561 0 0 1 .383-.985h2.737c.329 0 .575.246.575.575a.561.561 0 0 1-.575.574h-2.736c-.137.028-.274-.054-.384-.164ZM34.157 40.35a.561.561 0 0 1 .383-.985h1.369c.328 0 .575.247.575.575a.561.561 0 0 1-.575.575H34.54a.497.497 0 0 1-.383-.164Z"/><path fill="#FF9C00" d="M77.646 38.353a2.247 2.247 0 0 1 0 3.175 2.247 2.247 0 0 1-3.175 0 2.247 2.247 0 0 1 0-3.175c.903-.848 2.326-.848 3.175 0Z"/><path fill="#fff" d="M74.498 41.5a2.247 2.247 0 0 1 0-3.174 2.246 2.246 0 0 1 3.174 0"/><path fill="#FF9C00" d="M74.088 41.911a2.847 2.847 0 0 1-.821-1.97c0-.767.301-1.45.821-1.97a2.847 2.847 0 0 1 1.97-.822c.767 0 1.451.301 1.971.821s.821 1.259.821 1.97a2.75 2.75 0 0 1-.82 1.971c-.52.52-1.26.821-1.971.821-.74.028-1.424-.274-1.971-.821Zm3.147-3.147a1.64 1.64 0 0 0-1.15-.493c-.437 0-.848.192-1.149.493a1.639 1.639 0 0 0-.492 1.15c0 .437.191.848.492 1.149.301.3.712.492 1.15.492.438 0 .848-.191 1.15-.492a1.64 1.64 0 0 0 .492-1.15c-.027-.41-.164-.82-.493-1.15ZM15.437 38.38a2.247 2.247 0 0 1 0 3.175 2.247 2.247 0 0 1-3.175 0 2.247 2.247 0 0 1 0-3.175 2.222 2.222 0 0 1 3.175 0Z"/><path fill="#fff" d="M12.29 41.528a2.247 2.247 0 0 1 0-3.175 2.247 2.247 0 0 1 3.175 0"/><path fill="#FF9C00" d="M11.88 41.938a2.847 2.847 0 0 1-.822-1.97c0-.766.301-1.45.821-1.97a2.847 2.847 0 0 1 1.97-.822c.767 0 1.451.302 1.971.822s.821 1.259.821 1.97a2.75 2.75 0 0 1-.82 1.97c-.52.52-1.26.822-1.971.822-.74-.028-1.45-.301-1.97-.822Zm3.146-3.147a1.639 1.639 0 0 0-1.149-.492c-.438 0-.848.191-1.15.492a1.639 1.639 0 0 0-.492 1.15c0 .438.192.848.492 1.15.302.3.712.492 1.15.492.438 0 .848-.192 1.15-.493.3-.3.492-.712.492-1.15 0-.437-.191-.848-.492-1.149Z"/></svg>