<svg xmlns="http://www.w3.org/2000/svg" width="20" height="24" fill="none"><path fill="#FF9C00" d="M16.889 12.184v-2.127c0-3.103-2.063-5.734-4.889-6.593v-.963c0-1.103-.897-2-2-2s-2 .897-2 2v.963c-2.826.86-4.889 3.49-4.889 6.593v2.127c0 2.726-1.039 5.31-2.925 7.278a.667.667 0 0 0 .48 1.128h6.068A3.339 3.339 0 0 0 10 23.257a3.339 3.339 0 0 0 3.266-2.667h6.067a.667.667 0 0 0 .482-1.128 10.468 10.468 0 0 1-2.926-7.278ZM9.333 2.5a.667.667 0 0 1 1.334 0v.7a6.946 6.946 0 0 0-1.334 0v-.7ZM10 21.923c-.87 0-1.61-.557-1.885-1.333h3.77A2.003 2.003 0 0 1 10 21.923Zm-7.896-2.666a11.787 11.787 0 0 0 2.34-7.073v-2.127A5.562 5.562 0 0 1 10 4.5a5.562 5.562 0 0 1 5.556 5.556v2.127c0 2.575.822 5.037 2.34 7.073H2.104Z"/><path fill="#fff" d="M18.667 10.057a.667.667 0 0 0 1.334 0 9.935 9.935 0 0 0-2.93-7.071.667.667 0 0 0-.942.943 8.61 8.61 0 0 1 2.538 6.128ZM.667 10.723a.667.667 0 0 0 .666-.666 8.61 8.61 0 0 1 2.539-6.128.667.667 0 1 0-.943-.943A9.934 9.934 0 0 0 0 10.056c0 .369.298.668.667.668Z"/></svg>