<svg width="50" height="50" fill="none" xmlns="http://www.w3.org/2000/svg"><path d="M17.31 22.151a.35.35 0 0 1 .24-.616h23.776a.35.35 0 0 1 .359.36.35.35 0 0 1-.36.36H17.55c-.085.016-.17-.035-.24-.104ZM2.224 22.152a.35.35 0 0 1 .24-.616h.854a.35.35 0 0 1 .36.36.35.35 0 0 1-.36.358h-.855a.31.31 0 0 1-.24-.102ZM4.789 22.152a.35.35 0 0 1 .24-.616h1.71a.35.35 0 0 1 .359.36.35.35 0 0 1-.36.358h-1.71c-.085.018-.17-.034-.24-.102Zm3.455 0a.35.35 0 0 1 .24-.616h1.71a.35.35 0 0 1 .36.36.35.35 0 0 1-.36.358h-1.71c-.086.018-.171-.034-.24-.102Zm3.455 0a.35.35 0 0 1 .24-.616h1.71a.35.35 0 0 1 .36.36.35.35 0 0 1-.36.358h-1.71c-.086.018-.171-.034-.24-.102ZM15.155 22.152a.35.35 0 0 1 .24-.616h.855a.35.35 0 0 1 .36.36.35.35 0 0 1-.36.358h-.855a.31.31 0 0 1-.24-.102Z" fill="#0E1E36"/><path d="M42.336 20.903a1.404 1.404 0 0 1-1.984 1.984 1.404 1.404 0 0 1 0-1.984c.564-.53 1.454-.53 1.984 0Z" fill="#fff"/><path d="M40.368 22.87a1.404 1.404 0 0 1 1.984-1.984" fill="#4069FF"/><path d="M40.112 23.126a1.78 1.78 0 0 1-.513-1.231c0-.48.188-.907.513-1.232a1.78 1.78 0 0 1 1.232-.513c.479 0 .906.188 1.231.513.325.325.514.787.514 1.232 0 .479-.189.906-.514 1.231a1.78 1.78 0 0 1-1.231.514c-.462.017-.89-.172-1.232-.514Zm1.967-1.967a1.024 1.024 0 0 0-.718-.308c-.274 0-.53.12-.719.308a1.024 1.024 0 0 0-.308.719c0 .273.12.53.308.718.188.188.445.308.719.308.274 0 .53-.12.718-.308.188-.188.308-.445.308-.718a1.09 1.09 0 0 0-.308-.719Z" fill="#0E1E36"/><path d="M3.455 20.92a1.404 1.404 0 0 1-1.984 1.984 1.404 1.404 0 0 1 0-1.984 1.389 1.389 0 0 1 1.984 0Z" fill="#fff"/><path d="M1.488 22.887a1.404 1.404 0 0 1 1.985-1.984" fill="#4069FF"/><path d="M1.231 23.144a1.78 1.78 0 0 1-.513-1.232c0-.479.188-.906.513-1.231a1.78 1.78 0 0 1 1.232-.513c.479 0 .906.188 1.231.513.325.325.514.787.514 1.231 0 .48-.189.907-.514 1.232a1.78 1.78 0 0 1-1.231.513 1.825 1.825 0 0 1-1.232-.513Zm1.967-1.967a1.024 1.024 0 0 0-.718-.308c-.274 0-.53.12-.718.308a1.024 1.024 0 0 0-.308.718c0 .274.12.53.308.719.188.188.444.308.718.308.274 0 .53-.12.718-.308.189-.189.308-.445.308-.719 0-.273-.12-.53-.308-.718ZM23.504 28.344a.35.35 0 0 1 .24-.616H47.52a.35.35 0 0 1 .36.36.35.35 0 0 1-.36.359H23.743c-.085.017-.17-.034-.239-.103ZM8.417 28.344a.35.35 0 0 1 .24-.616h.855a.35.35 0 0 1 .359.36.35.35 0 0 1-.36.359h-.855a.31.31 0 0 1-.24-.103ZM10.983 28.345a.35.35 0 0 1 .24-.616h1.71a.35.35 0 0 1 .36.359.35.35 0 0 1-.36.36h-1.71c-.086.016-.171-.035-.24-.104Zm3.455 0a.35.35 0 0 1 .24-.616h1.71a.35.35 0 0 1 .36.359.35.35 0 0 1-.36.36h-1.71c-.086.016-.171-.035-.24-.104Zm3.456 0a.35.35 0 0 1 .24-.616h1.71a.35.35 0 0 1 .359.359.35.35 0 0 1-.36.36h-1.71c-.085.016-.17-.035-.24-.104ZM21.349 28.344a.35.35 0 0 1 .24-.616h.854a.35.35 0 0 1 .36.36.35.35 0 0 1-.36.359h-.855a.31.31 0 0 1-.24-.103Z" fill="#0E1E36"/><path d="M48.53 27.096a1.404 1.404 0 0 1-1.985 1.984 1.404 1.404 0 0 1 0-1.984c.564-.53 1.454-.53 1.984 0Z" fill="#fff"/><path d="M46.562 29.063a1.404 1.404 0 0 1 1.984-1.984" fill="#4069FF"/><path d="M46.306 29.32a1.78 1.78 0 0 1-.514-1.232c0-.48.188-.907.514-1.232a1.78 1.78 0 0 1 1.231-.513c.479 0 .907.188 1.232.513.325.325.513.787.513 1.232 0 .479-.188.906-.513 1.232a1.78 1.78 0 0 1-1.232.513c-.462.017-.89-.171-1.231-.513Zm1.967-1.968a1.024 1.024 0 0 0-.719-.308c-.273 0-.53.12-.718.308a1.025 1.025 0 0 0-.308.719c0 .273.12.53.308.718.188.188.445.308.718.308.274 0 .53-.12.719-.308.188-.188.307-.445.307-.718a1.09 1.09 0 0 0-.307-.719Z" fill="#0E1E36"/><path d="M9.648 27.113a1.404 1.404 0 0 1-1.984 1.984 1.404 1.404 0 0 1 0-1.984 1.389 1.389 0 0 1 1.984 0Z" fill="#fff"/><path d="M7.682 29.08a1.404 1.404 0 0 1 1.984-1.984" fill="#4069FF"/><path d="M7.425 29.337a1.78 1.78 0 0 1-.513-1.232c0-.479.188-.907.513-1.232a1.78 1.78 0 0 1 1.231-.513c.48 0 .907.188 1.232.513.325.325.513.787.513 1.232 0 .479-.188.907-.513 1.232a1.78 1.78 0 0 1-1.232.513 1.824 1.824 0 0 1-1.231-.514Zm1.967-1.968a1.024 1.024 0 0 0-.719-.308c-.273 0-.53.12-.718.308a1.024 1.024 0 0 0-.308.719c0 .273.12.53.308.718.188.188.445.308.718.308.274 0 .53-.12.719-.308.188-.188.308-.445.308-.718 0-.274-.12-.53-.308-.719Z" fill="#0E1E36"/></svg>