<svg width="2315" height="738" fill="none" xmlns="http://www.w3.org/2000/svg"><path d="m958.48 371.645-46.757 46.757a10.036 10.036 0 0 1-7.143 2.959 10.036 10.036 0 0 1-7.143-2.959 10.034 10.034 0 0 1-2.958-7.143c0-2.698 1.05-5.234 2.958-7.142l3.37-3.37c8.632-8.632 8.632-22.676 0-31.308-8.632-8.632-22.676-8.632-31.307 0l-6.248 6.247c-6.364 6.364-14.826 9.869-23.827 9.869-9 0-17.462-3.505-23.827-9.869-6.364-6.365-9.869-14.826-9.869-23.828 0-9 3.505-17.462 9.869-23.827l14.368-14.367a4.82 4.82 0 0 0-6.816-6.816l-14.367 14.368c-16.897 16.896-16.897 44.389 0 61.286 8.185 8.185 19.067 12.693 30.643 12.693 11.575 0 22.458-4.508 30.643-12.693l6.248-6.247c4.873-4.873 12.802-4.873 17.675 0 4.873 4.873 4.873 12.803 0 17.676l-3.37 3.37a19.613 19.613 0 0 0-5.782 13.958 19.61 19.61 0 0 0 5.782 13.959A19.615 19.615 0 0 0 904.581 431a19.61 19.61 0 0 0 13.959-5.782l46.757-46.758a4.82 4.82 0 1 0-6.817-6.815ZM765.226 285.069l-56.086 56.086c-6.853 6.853-6.853 18.004 0 24.858a17.522 17.522 0 0 0 12.429 5.14c4.501 0 9.002-1.713 12.429-5.14l56.086-56.086c6.853-6.853 6.853-18.005 0-24.858-6.854-6.854-18.005-6.854-24.858 0Zm18.042 18.042-56.086 56.086c-3.095 3.094-8.131 3.094-11.226 0-3.096-3.095-3.095-8.131 0-11.227l56.085-56.086a7.918 7.918 0 0 1 5.614-2.321c2.032 0 4.066.774 5.613 2.321 3.095 3.096 3.095 8.132 0 11.227Z" fill="#065054" fill-opacity=".05"/><path d="M1028.14 171.121c0-24.071-19.58-43.654-43.651-43.654-24.07 0-43.653 19.583-43.653 43.654a43.39 43.39 0 0 0 3.284 16.59 43.276 43.276 0 0 0-8.346 6.515l-19.05 19.05c-5.036 5.035-13.23 5.035-18.266 0-5.035-5.036-5.035-13.23 0-18.266l19.051-19.051c8.185-8.185 12.693-19.067 12.693-30.643s-4.508-22.458-12.693-30.643c-16.897-16.897-44.39-16.897-61.287 0l-75.025 75.025c-16.897 16.897-16.897 44.39 0 61.287 18.914 18.917 48.296 15.508 64.171-2.886 5.036-5.035 13.229-5.035 18.266 0a12.836 12.836 0 0 1 3.783 9.133c0 3.45-1.343 6.694-3.783 9.133l-24.561 24.561a4.817 4.817 0 0 0 0 6.815 4.817 4.817 0 0 0 6.815 0l24.561-24.56a22.407 22.407 0 0 0 6.606-15.949 22.41 22.41 0 0 0-6.606-15.949c-8.793-8.793-23.103-8.794-31.897 0-13.445 16.042-36.763 16.697-50.54 2.885-13.138-13.138-13.138-34.515 0-47.654l75.026-75.026c6.364-6.364 14.826-9.869 23.827-9.869 9.001 0 17.463 3.505 23.827 9.869 6.365 6.365 9.87 14.827 9.87 23.827 0 9.001-3.506 17.463-9.87 23.827l-19.05 19.051c-8.794 8.794-8.794 23.104 0 31.898s23.103 8.795 31.898 0l19.05-19.051a33.925 33.925 0 0 1 6.174-4.88c9.958 14.754 30.924 22.682 49.076 16.518a33.658 33.658 0 0 1 2.27 12.189c0 9.001-3.502 17.463-9.866 23.827l-68.878 68.88a21.994 21.994 0 0 0-6.484 15.653 21.994 21.994 0 0 0 6.484 15.654 21.994 21.994 0 0 0 15.654 6.484 21.994 21.994 0 0 0 15.653-6.484l14.102-14.101a10.036 10.036 0 0 1 7.143-2.959c2.697 0 5.234 1.051 7.142 2.959 3.938 3.939 3.938 10.347 0 14.285l-6.612 6.613a4.818 4.818 0 0 0 3.407 8.227c1.234 0 2.468-.47 3.408-1.411l6.613-6.614c7.696-7.696 7.696-20.22 0-27.916a19.612 19.612 0 0 0-13.959-5.783 19.612 19.612 0 0 0-13.959 5.783l-14.102 14.101a12.416 12.416 0 0 1-8.838 3.661c-3.338 0-6.476-1.3-8.837-3.661a12.417 12.417 0 0 1-3.661-8.838c0-3.339 1.3-6.478 3.661-8.838l68.878-68.879c8.181-8.185 12.691-19.067 12.691-30.643 0-5.627-1.07-11.087-3.11-16.156 12.86-7.604 21.5-21.603 21.5-37.59Zm-43.651 34.014c-10.769 0-20.378-5.036-26.614-12.87 12.283-3.252 26.821 1.029 35.052 11.81a33.981 33.981 0 0 1-8.438 1.06Zm17.581-4.905c-10.234-15.552-32.093-22.543-49.169-16.518a33.822 33.822 0 0 1-2.426-12.591c0-18.756 15.259-34.015 34.014-34.015 18.751 0 34.011 15.259 34.011 34.015 0 12.327-6.59 23.142-16.43 29.109ZM741.689 166.682c10.811 0 19.607-8.796 19.607-19.607 0-10.812-8.796-19.608-19.607-19.608-10.812 0-19.608 8.796-19.608 19.608 0 10.811 8.796 19.607 19.608 19.607Zm0-29.575c5.496 0 9.968 4.471 9.968 9.968s-4.471 9.968-9.968 9.968-9.969-4.471-9.969-9.968 4.472-9.968 9.969-9.968ZM2244.48 269.645l-46.76 46.757a10.03 10.03 0 0 1-7.14 2.959c-2.7 0-5.23-1.051-7.14-2.959a10.027 10.027 0 0 1-2.96-7.143c0-2.698 1.05-5.234 2.96-7.142l3.37-3.37c8.63-8.632 8.63-22.676 0-31.308-8.63-8.632-22.68-8.632-31.31 0l-6.25 6.247c-6.36 6.364-14.82 9.869-23.82 9.869-9.01 0-17.47-3.505-23.83-9.869-6.37-6.365-9.87-14.826-9.87-23.828 0-9 3.5-17.462 9.87-23.827l14.37-14.367a4.824 4.824 0 0 0 0-6.816 4.825 4.825 0 0 0-6.82 0l-14.37 14.368c-16.89 16.896-16.89 44.389 0 61.286 8.19 8.185 19.07 12.693 30.65 12.693 11.57 0 22.45-4.508 30.64-12.693l6.25-6.247c4.87-4.873 12.8-4.873 17.67 0 4.88 4.873 4.88 12.803 0 17.676l-3.37 3.37a19.602 19.602 0 0 0-5.78 13.958c0 5.273 2.05 10.23 5.78 13.959a19.624 19.624 0 0 0 13.96 5.782 19.62 19.62 0 0 0 13.96-5.782l46.76-46.758a4.822 4.822 0 0 0 0-6.815 4.823 4.823 0 0 0-6.82 0ZM2051.23 183.069l-56.09 56.086c-6.85 6.853-6.85 18.004 0 24.858a17.531 17.531 0 0 0 12.43 5.14c4.5 0 9-1.713 12.43-5.14l56.08-56.086c6.86-6.853 6.86-18.005 0-24.858-6.85-6.854-18-6.854-24.85 0Zm18.04 18.042-56.09 56.086c-3.09 3.094-8.13 3.094-11.22 0-3.1-3.095-3.1-8.131 0-11.227l56.08-56.086a7.917 7.917 0 0 1 5.61-2.321c2.04 0 4.07.774 5.62 2.321 3.09 3.096 3.09 8.132 0 11.227Z" fill="#065054" fill-opacity=".05"/><path d="M2314.14 69.12c0-24.07-19.58-43.653-43.65-43.653s-43.65 19.583-43.65 43.654c0 5.872 1.17 11.472 3.28 16.59a43.39 43.39 0 0 0-8.35 6.514l-19.05 19.051c-5.03 5.035-13.23 5.035-18.26 0-5.04-5.036-5.04-13.23 0-18.266l19.05-19.05c8.18-8.186 12.69-19.068 12.69-30.644 0-11.576-4.51-22.458-12.69-30.643-16.9-16.897-44.39-16.897-61.29 0l-75.02 75.025c-16.9 16.897-16.9 44.39 0 61.287 18.91 18.917 48.29 15.508 64.17-2.886 5.03-5.035 13.23-5.035 18.26 0a12.839 12.839 0 0 1 3.79 9.133c0 3.45-1.35 6.694-3.79 9.133l-24.56 24.561a4.822 4.822 0 0 0 0 6.815 4.823 4.823 0 0 0 6.82 0l24.56-24.56c4.26-4.26 6.61-9.924 6.61-15.949 0-6.024-2.35-11.688-6.61-15.949-8.79-8.793-23.1-8.794-31.9 0-13.44 16.042-36.76 16.697-50.54 2.885-13.14-13.138-13.14-34.515 0-47.654l75.03-75.026c6.36-6.364 14.82-9.869 23.83-9.869 9 0 17.46 3.505 23.82 9.87 6.37 6.364 9.87 14.826 9.87 23.826s-3.5 17.463-9.87 23.827l-19.05 19.05c-8.79 8.795-8.79 23.105 0 31.899 8.8 8.794 23.11 8.795 31.9 0l19.05-19.05a34.166 34.166 0 0 1 6.17-4.881c9.96 14.754 30.93 22.682 49.08 16.518a33.595 33.595 0 0 1 2.27 12.189c0 9.001-3.5 17.463-9.87 23.827l-68.87 68.88c-4.19 4.181-6.49 9.741-6.49 15.653 0 5.913 2.3 11.473 6.49 15.654a21.989 21.989 0 0 0 15.65 6.484c5.91 0 11.47-2.303 15.65-6.484l14.1-14.101a10.052 10.052 0 0 1 7.15-2.959c2.7 0 5.23 1.051 7.14 2.959 3.94 3.939 3.94 10.347 0 14.285l-6.61 6.613a4.824 4.824 0 0 0 0 6.816 4.796 4.796 0 0 0 3.41 1.411c1.23 0 2.46-.47 3.4-1.411l6.62-6.614c7.69-7.696 7.69-20.22 0-27.916a19.62 19.62 0 0 0-13.96-5.783c-5.28 0-10.23 2.054-13.96 5.783l-14.1 14.101a12.417 12.417 0 0 1-8.84 3.661c-3.34 0-6.48-1.3-8.84-3.661a12.42 12.42 0 0 1-3.66-8.838c0-3.339 1.3-6.478 3.66-8.838l68.88-68.879c8.18-8.185 12.69-19.067 12.69-30.643 0-5.627-1.07-11.087-3.11-16.156 12.86-7.604 21.5-21.603 21.5-37.59Zm-43.65 34.015c-10.77 0-20.38-5.036-26.62-12.87 12.29-3.252 26.83 1.029 35.06 11.81-2.7.691-5.53 1.06-8.44 1.06Zm17.58-4.905c-10.23-15.553-32.09-22.543-49.17-16.518a33.8 33.8 0 0 1-2.42-12.591c0-18.756 15.25-34.014 34.01-34.014 18.75 0 34.01 15.258 34.01 34.014 0 12.327-6.59 23.142-16.43 29.11ZM2027.69 64.682c10.81 0 19.61-8.796 19.61-19.607 0-10.812-8.8-19.608-19.61-19.608-10.81 0-19.61 8.796-19.61 19.608 0 10.811 8.8 19.607 19.61 19.607Zm0-29.576c5.49 0 9.97 4.472 9.97 9.969 0 5.497-4.47 9.968-9.97 9.968-5.5 0-9.97-4.471-9.97-9.968s4.47-9.969 9.97-9.969ZM254.48 678.645l-46.757 46.757a10.036 10.036 0 0 1-7.143 2.959 10.036 10.036 0 0 1-7.143-2.959 10.034 10.034 0 0 1-2.958-7.143c0-2.698 1.05-5.234 2.958-7.142l3.37-3.37c8.632-8.632 8.632-22.676 0-31.308-8.632-8.632-22.676-8.632-31.307 0l-6.248 6.247c-6.364 6.364-14.826 9.869-23.827 9.869-9 0-17.462-3.505-23.827-9.869-6.364-6.365-9.869-14.826-9.869-23.828 0-9 3.505-17.462 9.869-23.827l14.368-14.367a4.82 4.82 0 0 0-6.816-6.816l-14.367 14.368c-16.897 16.896-16.897 44.389 0 61.286 8.185 8.185 19.067 12.693 30.643 12.693 11.575 0 22.458-4.508 30.643-12.693l6.248-6.247c4.873-4.873 12.802-4.873 17.675 0 4.873 4.873 4.873 12.803 0 17.676l-3.37 3.37a19.613 19.613 0 0 0-5.782 13.958 19.61 19.61 0 0 0 5.782 13.959A19.615 19.615 0 0 0 200.581 738a19.61 19.61 0 0 0 13.959-5.782l46.757-46.758a4.82 4.82 0 1 0-6.817-6.815ZM61.226 592.069 5.14 648.155c-6.853 6.853-6.853 18.004 0 24.858a17.522 17.522 0 0 0 12.429 5.14c4.5 0 9.002-1.713 12.429-5.14l56.086-56.086c6.853-6.853 6.853-18.005 0-24.858-6.854-6.854-18.005-6.854-24.858 0Zm18.042 18.042-56.086 56.086c-3.095 3.094-8.13 3.094-11.226 0-3.096-3.095-3.095-8.131 0-11.227l56.085-56.086a7.916 7.916 0 0 1 5.614-2.321c2.032 0 4.066.774 5.613 2.321 3.095 3.096 3.095 8.132 0 11.227Z" fill="#065054" fill-opacity=".05"/><path d="M324.143 478.121c0-24.071-19.583-43.654-43.654-43.654-24.07 0-43.653 19.583-43.653 43.654a43.39 43.39 0 0 0 3.284 16.59 43.276 43.276 0 0 0-8.346 6.515l-19.05 19.05c-5.036 5.035-13.23 5.035-18.266 0-5.035-5.036-5.035-13.23 0-18.266l19.051-19.051c8.185-8.185 12.693-19.067 12.693-30.643s-4.508-22.458-12.693-30.643c-16.897-16.897-44.39-16.897-61.287 0l-75.025 75.025c-16.897 16.897-16.897 44.39 0 61.287 18.914 18.917 48.296 15.508 64.171-2.886 5.036-5.035 13.229-5.035 18.266 0a12.836 12.836 0 0 1 3.783 9.133c0 3.45-1.343 6.694-3.783 9.133l-24.561 24.561a4.817 4.817 0 0 0 0 6.815 4.817 4.817 0 0 0 6.815 0l24.561-24.56a22.407 22.407 0 0 0 6.606-15.949 22.41 22.41 0 0 0-6.606-15.949c-8.793-8.793-23.103-8.794-31.897 0-13.445 16.042-36.763 16.697-50.54 2.885-13.138-13.138-13.138-34.515 0-47.654l75.026-75.026c6.364-6.364 14.826-9.869 23.827-9.869 9.001 0 17.463 3.505 23.827 9.869 6.365 6.365 9.87 14.827 9.87 23.827 0 9.001-3.506 17.463-9.87 23.827l-19.05 19.051c-8.794 8.794-8.794 23.104 0 31.898s23.103 8.795 31.898 0l19.05-19.051a33.925 33.925 0 0 1 6.174-4.88c9.958 14.754 30.924 22.682 49.076 16.518a33.661 33.661 0 0 1 2.274 12.189c0 9.001-3.506 17.463-9.87 23.827l-68.878 68.88a21.994 21.994 0 0 0-6.484 15.653 21.994 21.994 0 0 0 6.484 15.654 21.994 21.994 0 0 0 15.654 6.484 21.994 21.994 0 0 0 15.653-6.484l14.102-14.101a10.036 10.036 0 0 1 7.143-2.959c2.697 0 5.234 1.051 7.142 2.959 3.938 3.939 3.938 10.347 0 14.285l-6.612 6.613a4.818 4.818 0 0 0 3.407 8.227c1.234 0 2.468-.47 3.408-1.411l6.613-6.614c7.696-7.696 7.696-20.22 0-27.916a19.612 19.612 0 0 0-13.959-5.783 19.612 19.612 0 0 0-13.959 5.783l-14.102 14.101a12.416 12.416 0 0 1-8.838 3.661c-3.338 0-6.476-1.3-8.837-3.661a12.417 12.417 0 0 1-3.661-8.838c0-3.339 1.3-6.478 3.661-8.838l68.878-68.879c8.185-8.185 12.693-19.067 12.693-30.643a43.28 43.28 0 0 0-3.108-16.156c12.855-7.604 21.499-21.603 21.499-37.59Zm-43.654 34.014c-10.769 0-20.378-5.036-26.614-12.87 12.283-3.252 26.821 1.029 35.052 11.81a33.981 33.981 0 0 1-8.438 1.06Zm17.579-4.905c-10.232-15.552-32.091-22.543-49.167-16.518a33.822 33.822 0 0 1-2.426-12.591c0-18.756 15.259-34.015 34.014-34.015 18.756 0 34.015 15.259 34.015 34.015 0 12.327-6.592 23.142-16.436 29.109ZM37.689 473.682c10.811 0 19.607-8.796 19.607-19.607 0-10.812-8.796-19.608-19.607-19.608-10.812 0-19.608 8.796-19.608 19.608 0 10.811 8.796 19.607 19.608 19.607Zm0-29.575c5.496 0 9.968 4.471 9.968 9.968s-4.471 9.968-9.968 9.968-9.969-4.471-9.969-9.968 4.472-9.968 9.969-9.968Z" fill="#065054" fill-opacity=".05"/></svg>